<svg width="512" height="512" viewBox="0 0 512 512" fill="none" xmlns="http://www.w3.org/2000/svg">
<g clip-path="url(#clip0_1128_2470)">
<path fill-rule="evenodd" clip-rule="evenodd" d="M512 256C512 397.385 397.385 512 256 512C114.615 512 0 397.385 0 256C0 114.615 114.615 0 256 0C397.385 0 512 114.615 512 256ZM293.328 370.653C300.195 370.653 308.861 363.778 303.866 352.497L235.956 192.331C232.898 185.22 223.016 185.419 219.954 192.602L208.512 219.481C207.288 222.355 204.464 224.221 201.338 224.221C195.955 224.221 192.191 218.899 193.991 213.831L238.157 89.4149C240.351 84.4151 244.901 81.9069 249.417 81.9201L249.452 81.92C254.507 81.92 258.826 85.0653 260.549 89.5011L365.012 339.785C372.727 358.582 377.663 370.332 389.392 370.653L398.811 370.662C403.921 370.662 408.064 374.794 408.064 379.891C408.064 380.991 407.871 382.046 407.517 383.024C406.164 386.567 402.748 389.12 398.812 389.12H281.174C276.065 389.12 271.922 384.988 271.922 379.891C271.922 374.794 276.064 370.653 281.174 370.653H293.328ZM114.559 321.861C131.249 323.295 143.534 324.374 152.81 326.111C162.062 327.844 167.817 330.151 171.776 333.724C175.736 337.3 178.306 342.511 180.257 350.895C182.212 359.298 183.453 370.431 185.105 385.554C185.315 387.477 187.105 389.12 189.437 389.12C191.779 389.12 193.572 387.465 193.772 385.533C195.335 370.411 196.511 359.28 198.423 350.879C200.33 342.498 202.88 337.293 206.836 333.723C210.792 330.152 216.566 327.845 225.867 326.111C235.187 324.374 247.54 323.295 264.32 321.861C266.458 321.678 268.288 320.06 268.288 317.949C268.288 315.841 266.463 314.224 264.329 314.037C247.549 312.571 235.195 311.468 225.874 309.715C216.572 307.966 210.795 305.651 206.836 302.079C202.879 298.508 200.33 293.311 198.423 284.948C196.511 276.565 195.335 265.459 193.773 250.371C193.573 248.439 191.779 246.784 189.437 246.784C187.105 246.784 185.314 248.427 185.104 250.35C183.453 265.439 182.211 276.547 180.257 284.932C178.306 293.298 175.737 298.502 171.775 302.077C167.814 305.653 162.056 307.966 152.802 309.715C143.526 311.468 131.24 312.571 114.549 314.037C112.416 314.225 110.592 315.842 110.592 317.949C110.592 320.06 112.421 321.678 114.559 321.861Z" fill="black"/>
<path d="M293.33 370.653C300.197 370.653 308.862 363.778 303.868 352.497L235.957 192.331C232.9 185.22 223.018 185.419 219.956 192.602L208.513 219.481C207.29 222.355 204.466 224.221 201.34 224.221C195.956 224.221 192.193 218.899 193.993 213.83L238.159 89.4148C240.353 84.4151 244.903 81.9068 249.418 81.92L249.454 81.9199C254.509 81.9199 258.828 85.0653 260.55 89.501L365.014 339.785C372.728 358.582 377.664 370.332 389.394 370.653L398.813 370.662C403.923 370.662 408.066 374.794 408.066 379.891C408.066 380.991 407.873 382.046 407.519 383.024C406.166 386.567 402.75 389.12 398.813 389.12H281.176C276.066 389.12 271.924 384.988 271.924 379.891C271.924 374.794 276.065 370.653 281.175 370.653H293.33Z" fill="white"/>
<path d="M152.811 326.111C143.536 324.374 131.251 323.295 114.56 321.861C112.423 321.678 110.594 320.06 110.594 317.949C110.594 315.841 112.417 314.225 114.551 314.037C131.242 312.571 143.528 311.468 152.804 309.715C162.058 307.966 167.816 305.652 171.777 302.077C175.738 298.501 178.308 293.298 180.258 284.932C182.213 276.547 183.454 265.439 185.105 250.35C185.316 248.427 187.107 246.784 189.439 246.784C191.781 246.784 193.575 248.439 193.775 250.371C195.337 265.459 196.513 276.565 198.425 284.947C200.332 293.31 202.881 298.508 206.838 302.079C210.797 305.651 216.574 307.966 225.875 309.715C235.197 311.468 247.551 312.571 264.331 314.037C266.465 314.224 268.29 315.841 268.29 317.949C268.29 320.06 266.459 321.678 264.321 321.861C247.542 323.295 235.189 324.374 225.868 326.111C216.568 327.845 210.794 330.152 206.837 333.723C202.881 337.293 200.332 342.498 198.424 350.879C196.513 359.28 195.336 370.411 193.774 385.533C193.574 387.465 191.781 389.12 189.439 389.12C187.107 389.12 185.316 387.477 185.106 385.553C183.455 370.431 182.214 359.298 180.259 350.895C178.308 342.511 175.738 337.3 171.777 333.724C167.819 330.15 162.064 327.844 152.811 326.111Z" fill="white"/>
</g>
<defs>
<clipPath id="clip0_1128_2470">
<rect width="512" height="512" fill="white"/>
</clipPath>
</defs>
</svg>
