<svg width="807" height="778" viewBox="0 0 807 778" fill="none" xmlns="http://www.w3.org/2000/svg">
<rect width="807" height="778" fill="black"/>
<path fill-rule="evenodd" clip-rule="evenodd" d="M488.185 227.031C487.803 227.131 487.008 227.447 486.417 227.734C485.039 228.405 483.435 229.963 482.732 231.315C481.852 233.007 481.834 233.125 480.606 245.457C478.243 269.185 476.7 282.741 475.044 294.322C470.763 324.264 465.425 340.609 456.41 351.378C454.842 353.251 452.099 355.942 450.232 357.437C448.748 358.626 445.202 361.026 443.539 361.967C435.351 366.599 424.266 370.131 408.996 372.974C394.924 375.593 377.65 377.725 343.447 381.064C332.932 382.09 332.7 382.126 331.006 382.999C329.663 383.691 328.103 385.298 327.427 386.687C326.731 388.116 326.522 389.002 326.522 390.538C326.522 392.074 326.731 392.96 327.427 394.389C328.166 395.908 329.676 397.417 331.196 398.158C331.786 398.445 332.61 398.764 333.027 398.867C333.444 398.969 337.394 399.397 341.805 399.818C373.802 402.875 389.989 404.751 403.433 406.963C437.435 412.556 452.789 420.678 462.133 438.015C467.015 447.073 470.614 459.382 473.595 477.221C475.803 490.431 477.652 505.857 480.729 536.721C481.288 542.327 481.807 547.213 481.882 547.58C481.957 547.946 482.266 548.757 482.568 549.382C483.481 551.267 484.662 552.469 486.48 553.365C487.839 554.034 488.744 554.244 490.269 554.244C491.806 554.244 492.692 554.036 494.121 553.34C495.64 552.6 497.15 551.091 497.891 549.572C498.179 548.982 498.498 548.158 498.601 547.741C498.703 547.324 499.159 543.006 499.614 538.145C502.898 503.044 504.975 485.645 507.586 471.349C510.068 457.762 512.978 447.93 516.856 440.035C518.834 436.007 520.574 433.216 523.035 430.123C524.235 428.614 527.296 425.471 528.791 424.212C538.844 415.748 553.64 410.561 579.058 406.588C592.402 404.503 607.524 402.783 638.039 399.881C642.832 399.425 647.095 398.969 647.512 398.867C649.81 398.304 652.099 396.474 653.114 394.389C653.887 392.8 654.056 391.979 653.986 390.163C653.937 388.909 653.866 388.479 653.576 387.7C652.61 385.095 650.443 383.075 647.764 382.281C647.106 382.086 644.704 381.808 638.355 381.192C601.871 377.65 584.765 375.542 570.217 372.798C544.861 368.016 530.918 361.268 522.078 349.501C516.52 342.104 512.318 331.665 509.167 317.429C505.792 302.18 503.511 284.347 499.552 242.237C499.131 237.757 498.702 233.752 498.6 233.335C498.036 231.034 496.221 228.767 494.121 227.739C493.531 227.45 492.709 227.128 492.295 227.023C491.345 226.782 489.119 226.786 488.185 227.031Z" fill="white"/>
<path fill-rule="evenodd" clip-rule="evenodd" d="M260.775 180.124C260.521 180.191 259.99 180.402 259.597 180.593C258.677 181.04 257.609 182.079 257.14 182.98C256.553 184.108 256.541 184.187 255.722 192.408C254.147 208.227 253.118 217.264 252.014 224.985C249.161 244.946 245.602 255.843 239.592 263.022C238.547 264.271 236.718 266.065 235.473 267.061C234.484 267.854 232.12 269.454 231.011 270.081C225.552 273.169 218.162 275.524 207.982 277.419C198.601 279.166 187.085 280.587 164.283 282.813C157.273 283.497 157.118 283.521 155.989 284.103C155.094 284.564 154.054 285.636 153.603 286.561C153.139 287.514 153 288.105 153 289.129C153 290.153 153.139 290.744 153.603 291.696C154.096 292.709 155.102 293.715 156.115 294.209C156.509 294.4 157.058 294.613 157.336 294.681C157.614 294.749 160.247 295.035 163.188 295.316C184.52 297.353 195.311 298.604 204.274 300.079C226.942 303.808 237.178 309.222 243.407 320.78C246.662 326.819 249.061 335.025 251.048 346.917C252.52 355.724 253.753 366.008 255.804 386.584C256.177 390.321 256.523 393.579 256.573 393.823C256.623 394.068 256.829 394.608 257.031 395.025C257.639 396.281 258.426 397.083 259.639 397.68C260.544 398.126 261.147 398.266 262.165 398.266C263.189 398.266 263.78 398.127 264.733 397.663C265.745 397.17 266.752 396.164 267.246 395.151C267.437 394.758 267.65 394.209 267.719 393.931C267.787 393.653 268.091 390.774 268.394 387.533C270.584 364.133 271.968 352.533 273.709 343.003C275.364 333.945 277.304 327.39 279.889 322.127C281.208 319.441 282.368 317.581 284.008 315.519C284.808 314.513 286.849 312.417 287.845 311.579C294.548 305.936 304.411 302.477 321.357 299.829C330.253 298.439 340.335 297.292 360.678 295.357C363.873 295.054 366.715 294.749 366.993 294.681C368.525 294.306 370.051 293.086 370.728 291.696C371.243 290.637 371.356 290.09 371.309 288.879C371.276 288.043 371.229 287.756 371.036 287.237C370.392 285.5 368.947 284.153 367.161 283.624C366.722 283.494 365.121 283.309 360.888 282.898C336.566 280.537 325.162 279.132 315.463 277.302C298.559 274.114 289.264 269.616 283.37 261.771C279.665 256.839 276.864 249.88 274.763 240.39C272.513 230.223 270.993 218.335 268.353 190.261C268.072 187.275 267.787 184.605 267.718 184.327C267.342 182.793 266.132 181.281 264.733 180.596C264.339 180.403 263.791 180.189 263.515 180.119C262.881 179.958 261.398 179.961 260.775 180.124Z" fill="white"/>
<path fill-rule="evenodd" clip-rule="evenodd" d="M340.534 452.915C340.365 452.959 340.012 453.1 339.75 453.227C339.139 453.524 338.428 454.215 338.116 454.814C337.726 455.565 337.718 455.617 337.174 461.085C336.126 471.606 335.442 477.617 334.707 482.752C332.809 496.028 330.442 503.275 326.445 508.05C325.75 508.881 324.534 510.074 323.706 510.737C323.048 511.264 321.476 512.328 320.738 512.745C317.108 514.799 312.192 516.365 305.422 517.625C299.183 518.787 291.523 519.732 276.358 521.213C271.695 521.668 271.592 521.684 270.842 522.071C270.246 522.377 269.554 523.09 269.254 523.706C268.946 524.339 268.854 524.733 268.854 525.413C268.854 526.094 268.946 526.488 269.254 527.121C269.582 527.794 270.252 528.463 270.926 528.792C271.187 528.92 271.553 529.061 271.738 529.106C271.922 529.152 273.674 529.341 275.63 529.528C289.817 530.884 296.994 531.716 302.955 532.696C318.032 535.176 324.84 538.778 328.983 546.464C331.147 550.481 332.743 555.938 334.065 563.848C335.044 569.706 335.864 576.545 337.228 590.23C337.476 592.716 337.706 594.883 337.739 595.045C337.772 595.208 337.909 595.567 338.044 595.845C338.448 596.68 338.972 597.213 339.778 597.61C340.381 597.907 340.782 598 341.458 598C342.139 598 342.533 597.908 343.166 597.599C343.84 597.271 344.509 596.602 344.838 595.928C344.965 595.667 345.107 595.301 345.152 595.117C345.198 594.932 345.4 593.017 345.602 590.862C347.058 575.298 347.979 567.583 349.136 561.245C350.237 555.22 351.527 550.861 353.247 547.36C354.124 545.574 354.895 544.337 355.986 542.965C356.518 542.296 357.876 540.902 358.538 540.345C362.996 536.592 369.556 534.291 380.827 532.53C386.744 531.605 393.449 530.843 406.979 529.556C409.104 529.354 410.994 529.152 411.179 529.106C412.198 528.857 413.213 528.046 413.663 527.121C414.006 526.416 414.081 526.053 414.05 525.247C414.028 524.691 413.996 524.501 413.868 524.155C413.439 523 412.479 522.104 411.291 521.752C410.999 521.666 409.934 521.543 407.119 521.269C390.942 519.699 383.357 518.765 376.907 517.548C365.664 515.427 359.482 512.435 355.562 507.218C353.098 503.938 351.235 499.309 349.837 492.997C348.341 486.236 347.33 478.329 345.574 459.657C345.387 457.671 345.197 455.895 345.152 455.71C344.902 454.69 344.097 453.685 343.166 453.229C342.904 453.101 342.54 452.958 342.357 452.911C341.935 452.805 340.948 452.807 340.534 452.915Z" fill="white"/>
</svg>
